<mxfile host="app.diagrams.net" modified="2023-12-13T09:35:40.680Z" agent="Mozilla/5.0 (X11; Linux x86_64) AppleWebKit/537.36 (KHTML, like Gecko) Chrome/120.0.0.0 Safari/537.36" etag="uBZnmYH_o7616mHJKC92" version="22.1.8" type="device">
  <diagram name="Page-1" id="MrbOs156krWAZSHJ5efu">
    <mxGraphModel dx="1062" dy="577" grid="1" gridSize="10" guides="1" tooltips="1" connect="1" arrows="1" fold="1" page="1" pageScale="1" pageWidth="850" pageHeight="1100" math="0" shadow="0">
      <root>
        <mxCell id="0" />
        <mxCell id="1" parent="0" />
        <mxCell id="ecSru2XOT4lSOgk5k5-m-2" value="Symmetric Key&lt;br&gt;and&lt;br&gt;Protected Symmetric Key" style="sketch=0;pointerEvents=1;shadow=0;dashed=0;html=1;strokeColor=none;fillColor=#006600;labelPosition=center;verticalLabelPosition=bottom;verticalAlign=top;outlineConnect=0;align=center;shape=mxgraph.office.security.key_permissions;" vertex="1" parent="1">
          <mxGeometry x="120" y="160" width="25" height="53" as="geometry" />
        </mxCell>
        <mxCell id="ecSru2XOT4lSOgk5k5-m-3" value="Private Key&lt;br&gt;&amp;amp; &lt;br&gt;Protected Private Key" style="sketch=0;pointerEvents=1;shadow=0;dashed=0;html=1;strokeColor=none;fillColor=#C40000;labelPosition=center;verticalLabelPosition=bottom;verticalAlign=top;outlineConnect=0;align=center;shape=mxgraph.office.security.key_permissions;" vertex="1" parent="1">
          <mxGeometry x="440" y="160" width="25" height="53" as="geometry" />
        </mxCell>
        <mxCell id="ecSru2XOT4lSOgk5k5-m-4" value="Public key" style="sketch=0;pointerEvents=1;shadow=0;dashed=0;html=1;strokeColor=none;fillColor=#2424B3;labelPosition=center;verticalLabelPosition=bottom;verticalAlign=top;outlineConnect=0;align=center;shape=mxgraph.office.security.key_permissions;" vertex="1" parent="1">
          <mxGeometry x="610" y="160" width="25" height="53" as="geometry" />
        </mxCell>
        <mxCell id="ecSru2XOT4lSOgk5k5-m-5" value="Shared key" style="sketch=0;pointerEvents=1;shadow=0;dashed=0;html=1;strokeColor=none;fillColor=#D9D900;labelPosition=center;verticalLabelPosition=bottom;verticalAlign=top;outlineConnect=0;align=center;shape=mxgraph.office.security.key_permissions;" vertex="1" parent="1">
          <mxGeometry x="280" y="160" width="25" height="53" as="geometry" />
        </mxCell>
      </root>
    </mxGraphModel>
  </diagram>
</mxfile>
